<?xml version="1.0" encoding="UTF-8" standalone="no"?>
<svg
   xmlns="http://www.w3.org/2000/svg"
   xmlns:inkscape="http://www.inkscape.org/namespaces/inkscape"
   width="640"
   height="640"
   viewBox="0 0 640 640"
   version="1.1">
  <defs>
    <filter id="soft-shadow" x="-20%" y="-20%" width="140%" height="150%">
      <feGaussianBlur in="SourceAlpha" stdDeviation="6" result="blur" />
      <feOffset in="blur" dx="0" dy="10" result="offset" />
      <feColorMatrix
         in="offset"
         type="matrix"
         values="0 0 0 0 0
                 0 0 0 0 0
                 0 0 0 0 0
                 0 0 0 0.22 0"
         result="shadow" />
      <feMerge>
        <feMergeNode in="shadow" />
      </feMerge>
    </filter>
  </defs>

  <g inkscape:groupmode="layer" inkscape:label="Shadow" id="shadow">
    <polygon
       points="320.00,26.00 604.33,178.00 320.00,330.00 320.00,616.00 35.67,464.00 35.67,178.00"
       fill="#000000"
       opacity="0.35"
       filter="url(#soft-shadow)" />
  </g>

  <g inkscape:groupmode="layer" inkscape:label="Body black shell" id="body-black-shell">
    <polygon
       id="left-face-black"
       points="35.67,178.00 320.00,330.00 320.00,616.00 35.67,464.00"
       fill="#030303" />
    <polygon
       id="right-face-black"
       points="604.33,178.00 320.00,330.00 320.00,616.00 604.33,464.00"
       fill="#030303" />
  </g>

  <g inkscape:groupmode="layer" inkscape:label="White and gray slots" id="slots">
    <polygon
       id="left-white-slot"
       points="71.21,235.00 321.87,369.00 321.87,455.00 71.21,321.00"
       fill="#ffffff" />
    <polygon
       id="right-white-slot"
       points="568.79,235.00 318.13,369.00 318.13,455.00 568.79,321.00"
       fill="#ffffff" />
    <polygon
       id="left-gray-slot"
       points="71.21,359.00 321.87,493.00 321.87,579.00 71.21,445.00"
       fill="#90908f" />
    <polygon
       id="right-gray-slot"
       points="568.79,359.00 318.13,493.00 318.13,579.00 568.79,445.00"
       fill="#90908f" />
  </g>

  <g inkscape:groupmode="layer" inkscape:label="Top panel" id="top-panel">
    <polygon
       id="top-black-border"
       points="320.00,26.00 604.33,178.00 320.00,330.00 35.67,178.00"
       fill="#030303" />
    <polygon
       id="top-gray-panel"
       points="320.00,54.00 551.96,178.00 320.00,311.00 88.04,178.00"
       fill="#90908f" />
  </g>

  <g inkscape:groupmode="layer" inkscape:label="Outer edges" id="outer-edges" fill="none" stroke="#000000" stroke-width="3" stroke-linejoin="round" stroke-linecap="round">
    <polyline
       id="top-outer-edge"
       points="320.00,26.00 604.33,178.00 320.00,330.00 35.67,178.00 320.00,26.00" />
    <polyline
       id="left-outer-edge"
       points="35.67,178.00 35.67,464.00 320.00,616.00" />
    <polyline
       id="right-outer-edge"
       points="604.33,178.00 604.33,464.00 320.00,616.00" />
    <polyline
       id="right-top-edge"
       points="604.33,178.00 320.00,330.00" />
  </g>

  <g inkscape:groupmode="layer" inkscape:label="LEDs" id="leds">
    <circle
       id="white-slot-blue-led"
       r="14.333"
       fill="#1c9de5"
       transform="matrix(-0.935307,0.5,0,1,488.36,321.00)" />
    <circle
       id="white-slot-green-led"
       r="14.333"
       fill="#23c855"
       transform="matrix(-0.935307,0.5,0,1,528.57,299.50)" />
    <circle
       id="gray-slot-blue-led"
       r="14.333"
       fill="#1c9de5"
       transform="matrix(-0.935307,0.5,0,1,488.36,445.00)" />
    <circle
       id="gray-slot-green-led"
       r="14.333"
       fill="#23c855"
       transform="matrix(-0.935307,0.5,0,1,528.57,423.50)" />
  </g>
</svg>
